<?xml version="1.0" standalone="no"?>
<!DOCTYPE svg PUBLIC "-//W3C//DTD SVG 20010904//EN"
 "http://www.w3.org/TR/2001/REC-SVG-20010904/DTD/svg10.dtd">
<svg version="1.0" xmlns="http://www.w3.org/2000/svg"
 width="1024.000000pt" height="1024.000000pt" viewBox="0 0 1024.000000 1024.000000"
 preserveAspectRatio="xMidYMid meet">
<metadata>
Created by potrace 1.15, written by Peter Selinger 2001-2017
</metadata>
<g transform="translate(0.000000,1024.000000) scale(0.100000,-0.100000)"
fill="#000000" stroke="none">
<path d="M6516 8494 c-114 -25 -191 -69 -282 -159 -86 -85 -132 -161 -159
-265 -19 -70 -19 -229 0 -299 89 -337 457 -504 773 -351 139 67 241 182 300
338 22 58 26 84 26 187 1 139 -19 213 -83 312 -126 192 -355 286 -575 237z"/>
<path d="M8835 8064 c-298 -63 -525 -335 -525 -629 0 -212 123 -414 311 -510
l77 -39 -37 -27 c-61 -44 -140 -140 -176 -214 -87 -177 -88 -360 -3 -535 44
-92 161 -206 259 -254 189 -90 398 -89 589 5 115 57 229 170 283 280 138 280
53 592 -207 761 -33 21 -76 43 -97 49 l-37 12 47 37 c105 83 189 207 227 335
27 90 24 259 -5 345 -33 94 -82 169 -158 240 -143 134 -344 187 -548 144z"/>
<path d="M2210 7819 c-445 -37 -885 -256 -1172 -584 -198 -226 -332 -495 -395
-794 -24 -113 -27 -147 -27 -336 -1 -180 2 -226 22 -323 159 -786 789 -1359
1597 -1452 525 -59 1076 133 1449 506 228 228 390 522 460 835 166 744 -174
1507 -849 1904 -233 138 -496 220 -780 244 -133 12 -166 12 -305 0z m276 -835
c132 -63 42 -214 -104 -175 -23 7 -50 23 -61 38 -70 89 52 190 165 137z"/>
<path d="M8072 5805 c-162 -29 -310 -90 -438 -180 -46 -32 -75 -45 -99 -45
-66 0 -191 -22 -265 -46 -111 -37 -204 -97 -295 -188 -91 -92 -144 -176 -182
-291 -25 -72 -27 -94 -28 -230 0 -131 3 -159 23 -219 34 -102 74 -174 142
-261 34 -42 60 -78 58 -79 -2 -1 -36 -24 -76 -51 -215 -141 -355 -339 -423
-602 -20 -74 -23 -112 -23 -238 1 -128 5 -164 27 -247 95 -359 352 -635 700
-754 285 -97 619 -61 873 95 161 100 290 243 374 416 67 136 92 239 97 400 6
145 -9 251 -53 377 -13 40 -26 77 -27 81 -1 5 39 19 88 31 385 99 673 385 767
762 30 120 32 341 4 459 -43 184 -127 342 -254 476 -177 187 -369 290 -619
334 -103 18 -271 18 -371 0z"/>
<path d="M4795 5600 c-279 -44 -524 -238 -630 -497 -73 -182 -73 -424 2 -611
88 -220 304 -410 540 -474 110 -30 306 -30 416 0 290 79 522 324 581 614 74
362 -101 727 -426 886 -57 28 -133 58 -169 66 -84 21 -236 28 -314 16z"/>
<path d="M9547 2683 c-67 -23 -139 -90 -167 -155 -18 -43 -22 -65 -18 -128 7
-127 75 -222 197 -278 45 -21 71 -26 136 -27 124 0 214 51 265 152 35 68 35
186 0 258 -73 149 -262 231 -413 178z"/>
<path d="M7823 1340 c-475 -39 -923 -289 -1209 -676 -122 -164 -238 -400 -292
-592 l-21 -72 1007 4 c554 2 1021 4 1037 4 17 0 373 -2 793 -4 l762 -4 -51
102 c-118 236 -242 412 -423 596 -197 202 -376 333 -611 448 -226 110 -455
173 -704 194 -128 11 -154 11 -288 0z"/>
</g>
</svg>
